<?xml version="1.0" encoding="utf-8"?>
<!-- Generator: Adobe Illustrator 26.3.1, SVG Export Plug-In . SVG Version: 6.00 Build 0)  -->
<svg version="1.1" id="Layer_1" xmlns="http://www.w3.org/2000/svg" xmlns:xlink="http://www.w3.org/1999/xlink" x="0px" y="0px"
	 viewBox="0 0 24 24" style="enable-background:new 0 0 24 24;" xml:space="preserve">
<!-- <style type="text/css">
	.st0{fill:none;stroke:#3A3A3A;stroke-width:1.5;stroke-linecap:round;stroke-linejoin:round;}
</style> -->
<path class="st0" d="M23,23H3c-0.7,0-1,0-1.3-0.1c-0.2-0.1-0.4-0.3-0.5-0.5C1,22.1,1,21.7,1,21V1 M23,5.9l-6.6,6.6
	c-0.2,0.2-0.4,0.4-0.5,0.4c-0.1,0-0.3,0-0.4,0c-0.1,0-0.3-0.2-0.5-0.4l-2.3-2.3c-0.2-0.2-0.4-0.4-0.5-0.4c-0.1,0-0.3,0-0.4,0
	c-0.1,0-0.3,0.2-0.5,0.4l-5.4,5.4 M23,5.9h-4.9 M23,5.9v4.9"/>
</svg>
