<?xml version="1.0" encoding="utf-8"?>
<!-- Generator: Adobe Illustrator 26.3.1, SVG Export Plug-In . SVG Version: 6.00 Build 0)  -->
<svg version="1.1" id="Layer_1" xmlns="http://www.w3.org/2000/svg" xmlns:xlink="http://www.w3.org/1999/xlink" x="0px" y="0px"
	 viewBox="0 0 24 24" style="enable-background:new 0 0 24 24;" xml:space="preserve">
<!-- <style type="text/css">
	.st0{fill:none;stroke:#3A3A3A;stroke-width:1.5;stroke-linecap:round;stroke-linejoin:round;}
</style> -->
<g>
	<path class="st0" d="M18.7,17.3c1.6,0.8,3,2.1,4,3.7c0.2,0.3,0.3,0.5,0.3,0.7c0.1,0.5-0.2,1-0.7,1.2C22.1,23,21.9,23,21.4,23
		 M1.6,20.7c1.8-2.7,4.6-4.4,7.7-4.4c3.1,0,5.9,1.7,7.7,4.4c0.4,0.6,0.6,0.9,0.6,1.2c0,0.3-0.2,0.6-0.4,0.8C16.8,23,16.3,23,15.5,23
		H3c-0.8,0-1.2,0-1.5-0.2C1.2,22.6,1,22.2,1,22C1,21.6,1.2,21.3,1.6,20.7z"/>
	<path class="st0" d="M16.4,10.4c1.6-0.8,2.8-2.5,2.8-4.5s-1.1-3.6-2.8-4.5 M14.2,6c0,2.8-2.2,5-5,5c-2.8,0-5-2.2-5-5s2.2-5,5-5
		C12,1,14.2,3.2,14.2,6z"/>
</g>
</svg>
