<?xml version="1.0" encoding="utf-8"?>
<!-- Generator: Adobe Illustrator 26.3.1, SVG Export Plug-In . SVG Version: 6.00 Build 0)  -->
<svg version="1.1" id="Layer_1" xmlns="http://www.w3.org/2000/svg" xmlns:xlink="http://www.w3.org/1999/xlink" x="0px" y="0px"
	 viewBox="0 0 24 24" style="enable-background:new 0 0 24 24;" xml:space="preserve">
<!-- <style type="text/css">
	.st0{fill:none;stroke:#222223;stroke-width:1.5;stroke-linecap:round;stroke-linejoin:round;}
</style> -->
<g>
	<g>
		<path class="st0" d="M13.4,20.2v1.4c0,0.8-0.6,1.4-1.4,1.4H2.4C1.6,23,1,22.4,1,21.6V6.5c0-0.8,0.6-1.4,1.4-1.4h6.9"/>
		<path class="st0" d="M10.6,1H17c0.4,0,0.7,0.1,1,0.4L22.6,6C22.9,6.3,23,6.6,23,7v11.9c0,0.8-0.6,1.4-1.4,1.4h-11
			c-0.8,0-1.4-0.6-1.4-1.4V2.4C9.2,1.6,9.9,1,10.6,1z"/>
		<path class="st0" d="M16.2,1v5.4c0,0.8,0.6,1.4,1.4,1.4H23"/>
	</g>
</g>
</svg>
