<?xml version="1.0" encoding="utf-8"?>
<!-- Generator: Adobe Illustrator 26.3.1, SVG Export Plug-In . SVG Version: 6.00 Build 0)  -->
<svg version="1.1" id="Layer_1" xmlns="http://www.w3.org/2000/svg" xmlns:xlink="http://www.w3.org/1999/xlink" x="0px" y="0px"
	 viewBox="0 0 24 24" style="enable-background:new 0 0 24 24;" xml:space="preserve">
<!-- <style type="text/css">
	.st0{fill:none;stroke:red;stroke-width:1.5;stroke-linecap:round;stroke-linejoin:round;}
</style> -->
<g>
	<g>
		<path class="st0" d="M21,1h-7.5c-1.1,0-2,0.9-2,2v3.5c0,1.1,0.9,2,2,2H21c1.1,0,2-0.9,2-2V3C23,1.9,22.1,1,21,1z"/>
		<path class="st0" d="M6.5,15.5H3c-1.1,0-2,0.9-2,2V21c0,1.1,0.9,2,2,2h3.5c1.1,0,2-0.9,2-2v-3.5C8.5,16.4,7.6,15.5,6.5,15.5z"/>
		<path class="st0" d="M6.5,12.5H3c-1.1,0-2-0.9-2-2V3c0-1.1,0.9-2,2-2h3.5c1.1,0,2,0.9,2,2v7.5C8.5,11.6,7.6,12.5,6.5,12.5z"/>
		<path class="st0" d="M21,23h-7.5c-1.1,0-2-0.9-2-2v-7.5c0-1.1,0.9-2,2-2H21c1.1,0,2,0.9,2,2V21C23,22.1,22.1,23,21,23z"/>
	</g>
</g>
</svg>
