<?xml version="1.0" encoding="utf-8"?>
<!-- Generator: Adobe Illustrator 26.3.1, SVG Export Plug-In . SVG Version: 6.00 Build 0)  -->
<svg version="1.1" id="Layer_1" xmlns="http://www.w3.org/2000/svg" xmlns:xlink="http://www.w3.org/1999/xlink" x="0px" y="0px"
	 viewBox="0 0 24 24" style="enable-background:new 0 0 24 24;" xml:space="preserve">
<!-- <style type="text/css">
	.st0{fill:none;stroke:#3A3A3A;stroke-width:1.5;stroke-linecap:round;stroke-linejoin:round;}
</style> -->
<path class="st0" d="M21.9,9.8H2.1 M16.4,1v4.4 M7.6,1v4.4 M7.4,23h9.2c1.8,0,2.8,0,3.5-0.4c0.6-0.3,1.1-0.8,1.4-1.4
	c0.4-0.7,0.4-1.6,0.4-3.5V8.5c0-1.8,0-2.8-0.4-3.5c-0.3-0.6-0.8-1.1-1.4-1.4c-0.7-0.4-1.6-0.4-3.5-0.4H7.4c-1.8,0-2.8,0-3.5,0.4
	C3.3,3.9,2.8,4.4,2.5,5C2.1,5.7,2.1,6.6,2.1,8.5v9.2c0,1.8,0,2.8,0.4,3.5c0.3,0.6,0.8,1.1,1.4,1.4C4.6,23,5.5,23,7.4,23z"/>
</svg>
