<?xml version="1.0" encoding="utf-8"?>
<!-- Generator: Adobe Illustrator 26.3.1, SVG Export Plug-In . SVG Version: 6.00 Build 0)  -->
<svg version="1.1" id="Layer_1" xmlns="http://www.w3.org/2000/svg" xmlns:xlink="http://www.w3.org/1999/xlink" x="0px" y="0px"
	 viewBox="0 0 24 24" style="enable-background:new 0 0 24 24;" xml:space="preserve">
<!-- <style type="text/css">
	.st0{fill:none;stroke:#3A3A3A;stroke-width:1.5;stroke-linecap:round;stroke-linejoin:round;}
</style> -->
<path class="st0" d="M16,6V5.2c0-1.1,0-1.7-0.2-2.1c-0.2-0.4-0.5-0.7-0.9-0.9C14.5,2,13.9,2,12.8,2h-1.6c-1.1,0-1.7,0-2.1,0.2
	C8.7,2.4,8.4,2.7,8.2,3.1C8,3.5,8,4.1,8,5.2V6 M3,6h18 M19,6v11.2c0,1.7,0,2.5-0.3,3.2c-0.3,0.6-0.7,1-1.3,1.3
	C16.7,22,15.9,22,14.2,22H9.8c-1.7,0-2.5,0-3.2-0.3c-0.6-0.3-1-0.7-1.3-1.3C5,19.7,5,18.9,5,17.2V6"/>
</svg>
