<?xml version="1.0" encoding="utf-8"?>
<!-- Generator: Adobe Illustrator 26.3.1, SVG Export Plug-In . SVG Version: 6.00 Build 0)  -->
<svg version="1.1" id="Layer_1" xmlns="http://www.w3.org/2000/svg" xmlns:xlink="http://www.w3.org/1999/xlink" x="0px" y="0px"
	 viewBox="0 0 24 24" style="enable-background:new 0 0 24 24;" xml:space="preserve">
<!-- <style type="text/css">
	.st0{fill:none;stroke:#3A3A3A;stroke-width:1.5;stroke-linecap:round;stroke-linejoin:round;}
</style> -->
<path class="st0" d="M21.1,21.5h-8.3 M2,22l5.7-2.2c0.4-0.1,0.6-0.2,0.7-0.3c0.2-0.1,0.3-0.2,0.4-0.3c0.2-0.1,0.3-0.3,0.6-0.5
	L21.1,7c1.1-1.1,1.1-3,0-4.1c-1.1-1.1-3-1.1-4.1,0L5.3,14.5c-0.3,0.3-0.4,0.4-0.5,0.6c-0.1,0.1-0.2,0.3-0.3,0.4
	c-0.1,0.2-0.2,0.4-0.3,0.7L2,22z M2,22l2.1-5.5c0.2-0.4,0.2-0.6,0.4-0.7c0.1-0.1,0.3-0.1,0.4-0.1c0.2,0,0.3,0.2,0.6,0.5l2.3,2.3
	c0.3,0.3,0.5,0.5,0.5,0.6c0,0.1,0,0.3-0.1,0.4c-0.1,0.1-0.3,0.2-0.7,0.4L2,22z"/>
</svg>
