<?xml version="1.0" encoding="utf-8"?>
<!-- Generator: Adobe Illustrator 26.3.1, SVG Export Plug-In . SVG Version: 6.00 Build 0)  -->
<svg version="1.1" id="Layer_1" xmlns="http://www.w3.org/2000/svg" xmlns:xlink="http://www.w3.org/1999/xlink" x="0px" y="0px"
	 viewBox="0 0 24 24" style="enable-background:new 0 0 24 24;" xml:space="preserve">
<!-- <style type="text/css">
	.st0{fill:none;stroke:#222223;stroke-linecap:round;stroke-linejoin:round;}
</style> -->
<path class="st0" d="M22.5,18.6L15.1,12 M8.9,12l-7.3,6.6 M1,6.5l9,6.3c0.7,0.5,1.1,0.8,1.5,0.9c0.3,0.1,0.7,0.1,1.1,0
	c0.4-0.1,0.8-0.4,1.5-0.9l9-6.3 M6.3,20.8h11.4c1.8,0,2.8,0,3.5-0.4c0.6-0.3,1.1-0.8,1.4-1.4c0.4-0.7,0.4-1.6,0.4-3.5v-7
	c0-1.8,0-2.8-0.4-3.5c-0.3-0.6-0.8-1.1-1.4-1.4c-0.7-0.4-1.6-0.4-3.5-0.4H6.3c-1.8,0-2.8,0-3.5,0.4C2.2,3.9,1.7,4.4,1.4,5
	C1,5.7,1,6.6,1,8.5v7c0,1.8,0,2.8,0.4,3.5c0.3,0.6,0.8,1.1,1.4,1.4C3.5,20.8,4.4,20.8,6.3,20.8z"/>
</svg>
