<?xml version="1.0" encoding="utf-8"?>
<!-- Generator: Adobe Illustrator 26.3.1, SVG Export Plug-In . SVG Version: 6.00 Build 0)  -->
<svg version="1.1" id="Layer_1" xmlns="http://www.w3.org/2000/svg" xmlns:xlink="http://www.w3.org/1999/xlink" x="0px" y="0px"
	 viewBox="0 0 24 24" style="enable-background:new 0 0 24 24;" xml:space="preserve">
<!-- <style type="text/css">
	.st0{fill:none;stroke:#3A3A3A;stroke-width:1.5;stroke-linecap:round;stroke-linejoin:round;}
</style> -->
<g>
	<path class="st0" d="M6,1h8.7c0.5,0,1,0.2,1.4,0.6l3.3,3.3C19.8,5.3,20,5.8,20,6.3V21c0,1.1-0.9,2-2,2H6c-1.1,0-2-0.9-2-2V3
		C4,1.9,4.9,1,6,1z"/>
	<line class="st0" x1="7.2" y1="19" x2="16.8" y2="19"/>
	<line class="st0" x1="7.2" y1="15.6" x2="16.8" y2="15.6"/>
	<line class="st0" x1="7.2" y1="12.2" x2="13.1" y2="12.2"/>
	<path class="st0" d="M14.5,1v3.5c0,1.1,0.9,2,2,2H20"/>
</g>
</svg>
