<?xml version="1.0" encoding="utf-8"?>
<!-- Generator: Adobe Illustrator 26.3.1, SVG Export Plug-In . SVG Version: 6.00 Build 0)  -->
<svg version="1.1" id="Layer_1" xmlns="http://www.w3.org/2000/svg" xmlns:xlink="http://www.w3.org/1999/xlink" x="0px" y="0px"
	 viewBox="0 0 24 24" style="enable-background:new 0 0 24 24;" xml:space="preserve">
<!-- <style type="text/css">
	.st0{fill:none;stroke:#222223;stroke-width:1.5;stroke-linecap:round;stroke-linejoin:round;}
</style> -->
<path class="st0" d="M8.8,8.8L4.2,4.2 M4.2,19.8l4.7-4.7 M15.1,15.2l4.6,4.6 M19.8,4.2l-4.7,4.7 M23,12c0,6.1-4.9,11-11,11
	C5.9,23,1,18.1,1,12C1,5.9,5.9,1,12,1C18.1,1,23,5.9,23,12z M16.4,12c0,2.4-2,4.4-4.4,4.4c-2.4,0-4.4-2-4.4-4.4c0-2.4,2-4.4,4.4-4.4
	C14.4,7.6,16.4,9.6,16.4,12z"/>
</svg>
