<?xml version="1.0" encoding="utf-8"?>
<!-- Generator: Adobe Illustrator 26.3.1, SVG Export Plug-In . SVG Version: 6.00 Build 0)  -->
<svg version="1.1" id="Layer_1" xmlns="http://www.w3.org/2000/svg" xmlns:xlink="http://www.w3.org/1999/xlink" x="0px" y="0px"
	 viewBox="0 0 32 32" style="enable-background:new 0 0 32 32;" xml:space="preserve">
<!-- <style type="text/css">
	.st0{fill:none;stroke:#3A3A3A;stroke-width:1.5;stroke-linecap:round;stroke-linejoin:round;}
</style> -->
<path class="st0" d="M11.6,25.9V10.5c0-1,0-1.5,0.1-2c0.3-1.1,1.2-2,2.3-2.3c0.4-0.1,0.9-0.1,2-0.1s1.5,0,2,0.1
	c1.1,0.3,2,1.2,2.3,2.3c0.1,0.4,0.1,0.9,0.1,2v15.4 M8.5,25.9h15c1.2,0,1.8,0,2.3-0.2c0.4-0.2,0.8-0.5,1-1c0.2-0.5,0.2-1.1,0.2-2.3
	V14c0-1.2,0-1.8-0.2-2.3c-0.2-0.4-0.5-0.8-1-1c-0.5-0.2-1.1-0.2-2.3-0.2h-15c-1.2,0-1.8,0-2.3,0.2c-0.4,0.2-0.8,0.5-1,1
	C5,12.2,5,12.8,5,14v8.4c0,1.2,0,1.8,0.2,2.3c0.2,0.4,0.5,0.8,1,1C6.7,25.9,7.3,25.9,8.5,25.9z"/>
</svg>
