<?xml version="1.0" encoding="utf-8"?>
<!-- Generator: Adobe Illustrator 26.3.1, SVG Export Plug-In . SVG Version: 6.00 Build 0)  -->
<svg version="1.1" id="Layer_1" xmlns="http://www.w3.org/2000/svg" xmlns:xlink="http://www.w3.org/1999/xlink" x="0px" y="0px"
	 viewBox="0 0 32 32" style="enable-background:new 0 0 32 32;" xml:space="preserve">
<!-- <style type="text/css">
	.st0{fill:none;stroke:#3A3A3A;stroke-width:1.5;stroke-linecap:round;stroke-linejoin:round;}
</style> -->
<path class="st0" d="M21.5,18.5v-3.3c0-0.2,0-0.3,0-0.4c0-0.1-0.1-0.1-0.1-0.2c-0.1-0.1-0.2-0.1-0.3-0.2l-5-2.5 M7.2,13v7.5
	c0,0.4,0,0.6,0.1,0.8c0.1,0.2,0.1,0.3,0.3,0.4c0.1,0.1,0.3,0.2,0.7,0.4l7,3.2c0.3,0.1,0.4,0.2,0.5,0.2c0.1,0,0.3,0,0.4,0
	c0.1,0,0.3-0.1,0.5-0.2l7-3.2c0.4-0.2,0.6-0.3,0.7-0.4c0.1-0.1,0.2-0.3,0.3-0.4c0.1-0.2,0.1-0.4,0.1-0.8V13 M5,11.9l10.6-5.3
	c0.1-0.1,0.2-0.1,0.3-0.1c0.1,0,0.1,0,0.2,0c0.1,0,0.1,0.1,0.3,0.1L27,11.9l-10.6,5.3c-0.1,0.1-0.2,0.1-0.3,0.1c-0.1,0-0.1,0-0.2,0
	c-0.1,0-0.1-0.1-0.3-0.1L5,11.9z"/>
</svg>
