<?xml version="1.0" encoding="utf-8"?>
<!-- Generator: Adobe Illustrator 26.3.1, SVG Export Plug-In . SVG Version: 6.00 Build 0)  -->
<svg version="1.1" id="Layer_1" xmlns="http://www.w3.org/2000/svg" xmlns:xlink="http://www.w3.org/1999/xlink" x="0px" y="0px"
	 viewBox="0 0 32 32" style="enable-background:new 0 0 32 32;" xml:space="preserve">
<!-- <style type="text/css">
	.st0{fill:none;stroke:#3A3A3A;stroke-width:1.5;stroke-linecap:round;stroke-linejoin:round;}
</style> -->
<g>
	<g>
		<path class="st0" d="M22.7,21.3c1.6,0.8,3,2.1,4,3.7c0.2,0.3,0.3,0.5,0.3,0.7c0.1,0.5-0.2,1-0.7,1.2C26.1,27,25.9,27,25.4,27
			 M5.6,24.7c1.8-2.7,4.6-4.4,7.7-4.4c3.1,0,5.9,1.7,7.7,4.4c0.4,0.6,0.6,0.9,0.6,1.2c0,0.3-0.2,0.6-0.4,0.8
			C20.8,27,20.3,27,19.5,27H7c-0.8,0-1.2,0-1.5-0.2C5.2,26.6,5,26.2,5,26C5,25.6,5.2,25.3,5.6,24.7z"/>
		<path class="st0" d="M20.4,14.4c1.6-0.8,2.8-2.5,2.8-4.5s-1.1-3.6-2.8-4.5 M18.2,10c0,2.8-2.2,5-5,5c-2.8,0-5-2.2-5-5s2.2-5,5-5
			C16,5,18.2,7.2,18.2,10z"/>
	</g>
</g>
</svg>
