<?xml version="1.0" encoding="utf-8"?>
<!-- Generator: Adobe Illustrator 26.3.1, SVG Export Plug-In . SVG Version: 6.00 Build 0)  -->
<svg version="1.1" id="Layer_1" xmlns="http://www.w3.org/2000/svg" xmlns:xlink="http://www.w3.org/1999/xlink" x="0px" y="0px"
	 viewBox="0 0 32 32" style="enable-background:new 0 0 32 32;" xml:space="preserve">
<!-- <style type="text/css">
	.st0{fill:none;stroke:#3A3A3A;stroke-width:1.5;stroke-linecap:round;stroke-linejoin:round;}
</style> -->
<g>
	<path class="st0" d="M23,27H9c-1,0-2-0.5-2.5-1.4l0,0c-0.7-1.1-0.5-2.6,0.3-3.5c2.4-2.6,5.6-4.2,9.1-4.2c3.5,0,6.8,1.6,9.1,4.2
		c0.9,1,1,2.4,0.3,3.5l0,0C24.9,26.5,24,27,23,27z"/>
	<path class="st0" d="M21,10c0,2.8-2.2,5-5,5c-2.8,0-5-2.2-5-5s2.2-5,5-5C18.8,5,21,7.2,21,10z"/>
</g>
</svg>
