<?xml version="1.0" encoding="utf-8"?>
<!-- Generator: Adobe Illustrator 26.3.1, SVG Export Plug-In . SVG Version: 6.00 Build 0)  -->
<svg version="1.1" id="Layer_1" xmlns="http://www.w3.org/2000/svg" xmlns:xlink="http://www.w3.org/1999/xlink" x="0px" y="0px"
	 viewBox="0 0 360 50" style="enable-background:new 0 0 360 50;" xml:space="preserve">
<!-- <style type="text/css">
	.st0{fill:#222223;}
</style> -->
<g>
	<path class="st0" d="M5,5.3h10l7.4,19.3l7.3-19.3h9.9v29.7h-8.2V18.6l-5.6,16.4h-6.9l-5.6-16.5v16.5H5V5.3z"/>
	<path class="st0" d="M60.7,11.3h9l-15,34.8h-9l5.6-12.2l-9.7-22.6H51l5,13.4L60.7,11.3z"/>
	<path class="st0" d="M93.7,5c7.4,0,12.8,4.3,14.2,11h-8.9c-1.1-2.2-3-3.5-5.5-3.5c-3.8,0-6.3,2.9-6.3,7.5c0,4.6,2.5,7.5,6.3,7.5
		c2.4,0,4.4-1.2,5.5-3.5h8.9c-1.5,6.7-6.8,11-14.2,11c-8.9,0-14.8-6.2-14.8-15.1C78.9,11.2,84.8,5,93.7,5z"/>
	<path class="st0" d="M122.8,35.2c-7,0-12.3-4.6-12.3-12.1c0-7.5,5.3-12.1,12.4-12.1c7,0,12.4,4.6,12.4,12.1
		C135.3,30.6,129.9,35.2,122.8,35.2z M122.8,28.1c2.1,0,4-1.6,4-5c0-3.4-1.9-4.9-4-4.9s-4,1.6-4,4.9
		C118.9,26.5,120.7,28.1,122.8,28.1z"/>
	<path class="st0" d="M170.8,22.3c0-2.6-1.6-4-3.9-4c-2.4,0-3.9,1.4-3.9,4v12.7h-8.2V22.3c0-2.6-1.5-4-3.9-4c-2.4,0-4,1.4-4,4v12.7
		h-8.2V11.3h8.2v3.1c1.3-1.9,3.7-3.3,6.9-3.3c3.5,0,6.3,1.6,7.9,4.3c1.6-2.4,4.4-4.3,7.9-4.3c6,0,9.6,3.9,9.6,10.1v13.8h-8.2V22.3z"
		/>
	<path class="st0" d="M198.7,11c5.6,0,10.1,4.5,10.1,12.1c0,7.5-4.4,12.1-10.1,12.1c-3.3,0-5.6-1.5-6.9-3.6v14.6h-8.2V11.3h8.2v3.3
		C193,12.5,195.4,11,198.7,11z M196.1,18.2c-2.3,0-4.3,1.7-4.3,4.9c0,3.2,2,4.9,4.3,4.9c2.3,0,4.3-1.8,4.3-4.9
		C200.4,19.9,198.4,18.2,196.1,18.2z"/>
	<path class="st0" d="M213.5,18.2h-2.9v-6.9h2.9V5.6h8.3v5.7h4.3v6.9h-4.3v7.9c0,1.3,0.5,1.8,1.9,1.8h2.4v7h-3.6c-5.2,0-9-2.2-9-9
		V18.2z"/>
	<path class="st0" d="M238.6,11c3.4,0,5.7,1.5,6.9,3.6v-3.3h8.2v23.6h-8.2v-3.3c-1.2,2.1-3.6,3.6-6.9,3.6c-5.6,0-10.1-4.6-10.1-12.1
		C228.5,15.6,233,11,238.6,11z M241.2,18.2c-2.4,0-4.3,1.7-4.3,4.9c0,3.2,1.9,4.9,4.3,4.9c2.3,0,4.3-1.7,4.3-4.9
		C245.5,19.9,243.6,18.2,241.2,18.2z"/>
	<path class="st0" d="M278.9,24.9h-4.1v10h-8.2V5.3h12.3c7.4,0,11.1,4.2,11.1,9.9C290,20.3,286.4,24.9,278.9,24.9z M278.1,18.4
		c2.5,0,3.5-1.3,3.5-3.2c0-2-1-3.2-3.5-3.2h-3.3v6.4H278.1z"/>
	<path class="st0" d="M293.3,3.8h8.2v31.1h-8.2V3.8z"/>
	<path class="st0" d="M330.4,34.9h-8.3v-3.4c-1.3,2-3.8,3.6-7.2,3.6c-5.5,0-8.9-3.9-8.9-10.1V11.3h8.2V24c0,2.7,1.6,4.3,3.9,4.3
		c2.4,0,3.9-1.6,3.9-4.3V11.3h8.3V34.9z"/>
	<path class="st0" d="M345.2,35.2c-6.6,0-10.9-3.5-11.3-8.2h8c0.2,1.6,1.5,2.4,3.2,2.4c1.4,0,2.2-0.7,2.2-1.5
		c0-3.5-12.5-0.6-12.5-9.3c0-4.1,3.4-7.5,9.8-7.5c6.4,0,9.8,3.6,10.4,8.2h-7.4c-0.3-1.5-1.3-2.4-3.1-2.4c-1.3,0-2.1,0.5-2.1,1.4
		c0,3.4,12.6,0.7,12.6,9.6C355,32.1,351.3,35.2,345.2,35.2z"/>
</g>
</svg>
