<?xml version="1.0" encoding="utf-8"?>
<!-- Generator: Adobe Illustrator 26.3.1, SVG Export Plug-In . SVG Version: 6.00 Build 0)  -->
<svg version="1.1" id="Layer_1" xmlns="http://www.w3.org/2000/svg" xmlns:xlink="http://www.w3.org/1999/xlink" x="0px" y="0px"
	 viewBox="0 0 24 24" style="enable-background:new 0 0 24 24;" xml:space="preserve">
<!-- <style type="text/css">
	.st0{fill:none;stroke:#222223;stroke-width:1.5;stroke-linecap:round;stroke-linejoin:round;}
</style> -->
<path class="st0" d="M23,12c0,6.1-4.9,11-11,11c-1.5,0-2.9-0.3-4.1-0.8C7.6,22.1,7.5,22,7.4,22c-0.1,0-0.2,0-0.3,0
	c-0.1,0-0.2,0-0.4,0.1l-4.3,0.7c-0.5,0.1-0.7,0.1-0.8,0c-0.1-0.1-0.3-0.2-0.3-0.3c-0.1-0.2,0-0.4,0-0.8l0.7-4.3C2,17.1,2,17,2,16.9
	c0-0.1,0-0.2,0-0.3c0-0.1-0.1-0.2-0.2-0.5C1.3,14.9,1,13.5,1,12C1,5.9,5.9,1,12,1C18.1,1,23,5.9,23,12z"/>
</svg>
