<?xml version="1.0" encoding="utf-8"?>
<!-- Generator: Adobe Illustrator 26.3.1, SVG Export Plug-In . SVG Version: 6.00 Build 0)  -->
<svg version="1.1" id="Layer_1" xmlns="http://www.w3.org/2000/svg" xmlns:xlink="http://www.w3.org/1999/xlink" x="0px" y="0px"
	 viewBox="0 0 24 24" style="enable-background:new 0 0 24 24;" xml:space="preserve">
<!-- <style type="text/css">
	.st0{fill:none;stroke:#3A3A3A;stroke-width:1.5;stroke-linecap:round;stroke-linejoin:round;}
</style> -->
<g>
	<path class="st0" d="M19.8,19.8c-1.3,1.3-2.7,2.2-4.3,2.7c-1-3.1-2.8-6.1-5.3-8.6c-2.5-2.5-5.5-4.3-8.6-5.3C2,7,2.9,5.5,4.2,4.2
		c4.3-4.3,11.3-4.3,15.6,0C24.1,8.5,24.1,15.5,19.8,19.8z"/>
	<path class="st0" d="M15.4,22.5c-0.8,0.3-1.6,0.4-2.4,0.5c-0.6,0.1-1.2-0.1-1.7-0.6l-9.8-9.8C1.2,12.2,1,11.6,1,11
		c0.1-0.8,0.3-1.6,0.5-2.4c3.1,1,6.1,2.8,8.6,5.3C12.6,16.4,14.4,19.3,15.4,22.5z"/>
</g>
</svg>
