<?xml version="1.0" encoding="utf-8"?>
<!-- Generator: Adobe Illustrator 26.3.1, SVG Export Plug-In . SVG Version: 6.00 Build 0)  -->
<svg version="1.1" id="Layer_1" xmlns="http://www.w3.org/2000/svg" xmlns:xlink="http://www.w3.org/1999/xlink" x="0px" y="0px"
	 viewBox="0 0 24 24" style="enable-background:new 0 0 24 24;" xml:space="preserve">
<!-- <style type="text/css">
	.st0{fill:none;stroke:#3A3A3A;stroke-width:1.5;stroke-linecap:round;stroke-linejoin:round;}
</style> -->
<g>
	<path class="st0" d="M12,15.7c-3.9,0-7.3,1.9-9.5,4.8c-0.5,0.6-0.7,0.9-0.7,1.4c0,0.3,0.2,0.7,0.5,0.9C2.6,23,3,23,4,23H20
		c0.9,0,1.4,0,1.7-0.3c0.3-0.2,0.5-0.6,0.5-0.9c0-0.4-0.2-0.7-0.7-1.4C19.3,17.5,15.9,15.7,12,15.7z"/>
	<path class="st0" d="M12,12c3,0,5.5-2.5,5.5-5.5S15,1,12,1C9,1,6.5,3.5,6.5,6.5S9,12,12,12z"/>
</g>
</svg>
