<?xml version="1.0" encoding="utf-8"?>
<!-- Generator: Adobe Illustrator 26.3.1, SVG Export Plug-In . SVG Version: 6.00 Build 0)  -->
<svg version="1.1" id="Layer_1" xmlns="http://www.w3.org/2000/svg" xmlns:xlink="http://www.w3.org/1999/xlink" x="0px" y="0px"
	 viewBox="0 0 24 24" style="enable-background:new 0 0 24 24;" xml:space="preserve">
<!-- <style type="text/css">
	.st0{fill:none;stroke:#222223;stroke-linecap:round;stroke-linejoin:round;}
</style> -->
<path class="st0" d="M7.4,8.4c0.8,1.7,1.9,3.3,3.4,4.7c1.4,1.4,3,2.5,4.7,3.4c0.1,0.1,0.2,0.1,0.3,0.1c0.3,0.1,0.7,0,1-0.2
	c0.1-0.1,0.1-0.1,0.3-0.3c0.4-0.4,0.6-0.6,0.8-0.8c0.8-0.5,1.8-0.5,2.6,0c0.2,0.1,0.4,0.3,0.8,0.8l0.2,0.2c0.6,0.6,0.9,0.9,1.1,1.3
	c0.3,0.7,0.3,1.5,0,2.1c-0.2,0.3-0.5,0.7-1.1,1.3l-0.2,0.2c-0.6,0.6-0.9,0.9-1.4,1.2c-0.5,0.3-1.2,0.5-1.7,0.5
	c-0.5,0-0.8-0.1-1.5-0.3c-3.6-1-7-2.9-9.8-5.8c-2.8-2.8-4.7-6.2-5.8-9.8C1.1,6.5,1,6.2,1,5.7c0-0.5,0.2-1.3,0.5-1.7
	C1.7,3.5,2,3.2,2.6,2.6l0.2-0.2c0.6-0.6,0.9-0.9,1.3-1.1c0.7-0.3,1.5-0.3,2.1,0c0.3,0.2,0.7,0.5,1.3,1.1l0.2,0.2
	C8.2,3,8.4,3.2,8.5,3.4C9,4.2,9,5.2,8.5,6C8.4,6.2,8.2,6.4,7.7,6.8C7.6,7,7.5,7,7.5,7.1c-0.2,0.3-0.3,0.7-0.2,1
	C7.3,8.2,7.4,8.3,7.4,8.4z"/>
</svg>
