<?xml version="1.0" encoding="utf-8"?>
<!-- Generator: Adobe Illustrator 26.3.1, SVG Export Plug-In . SVG Version: 6.00 Build 0)  -->
<svg version="1.1" id="Layer_1" xmlns="http://www.w3.org/2000/svg" xmlns:xlink="http://www.w3.org/1999/xlink" x="0px" y="0px"
	 viewBox="0 0 24 24" style="enable-background:new 0 0 24 24;" xml:space="preserve">
<!-- <style type="text/css">
	.st0{fill:none;stroke:#3A3A3A;stroke-width:1.5;stroke-linecap:round;stroke-linejoin:round;}
</style> -->
<path class="st0" d="M10.9,10.9H5.6c-1.2,0-1.8,0-2.3,0.2c-0.4,0.2-0.8,0.5-1,1c-0.2,0.5-0.2,1.1-0.2,2.3v7.5 M21.9,21.9V5.6
	c0-1.2,0-1.8-0.2-2.3c-0.2-0.4-0.5-0.8-1-1c-0.5-0.2-1.1-0.2-2.3-0.2h-4c-1.2,0-1.8,0-2.3,0.2c-0.4,0.2-0.8,0.5-1,1
	c-0.2,0.5-0.2,1.1-0.2,2.3v16.3 M23,21.9H1 M14.8,6.5H18 M14.8,10.9H18 M14.8,15.3H18"/>
</svg>
