<?xml version="1.0" encoding="utf-8"?>
<!-- Generator: Adobe Illustrator 26.3.1, SVG Export Plug-In . SVG Version: 6.00 Build 0)  -->
<svg version="1.1" id="Layer_1" xmlns="http://www.w3.org/2000/svg" xmlns:xlink="http://www.w3.org/1999/xlink" x="0px" y="0px"
	 viewBox="0 0 24 24" style="enable-background:new 0 0 24 24;" xml:space="preserve">
<!-- <style type="text/css">
	.st0{fill:none;stroke:#222223;stroke-width:1.5;stroke-linecap:round;stroke-linejoin:round;}
</style> -->
<g>
	<path class="st0" d="M12,15.3c1.8,0,3.3-1.5,3.3-3.3S13.8,8.7,12,8.7S8.7,10.2,8.7,12S10.2,15.3,12,15.3z"/>
	<path class="st0" d="M19.4,15c-0.1,0.3-0.2,0.6-0.1,1c0.1,0.3,0.2,0.6,0.4,0.9l0.1,0.1c0.2,0.2,0.3,0.4,0.4,0.6
		c0.1,0.2,0.2,0.5,0.2,0.8c0,0.3-0.1,0.5-0.2,0.8c-0.1,0.2-0.2,0.5-0.4,0.6c-0.2,0.2-0.4,0.3-0.6,0.4c-0.2,0.1-0.5,0.2-0.8,0.2
		c-0.3,0-0.5-0.1-0.8-0.2c-0.2-0.1-0.5-0.2-0.6-0.4l-0.1-0.1c-0.2-0.2-0.5-0.4-0.9-0.4c-0.3-0.1-0.7,0-1,0.1
		c-0.3,0.1-0.5,0.3-0.7,0.6c-0.2,0.3-0.3,0.6-0.3,0.9V21c0,0.5-0.2,1-0.6,1.4c-0.4,0.4-0.9,0.6-1.4,0.6c-0.5,0-1-0.2-1.4-0.6
		c-0.4-0.4-0.6-0.9-0.6-1.4v-0.1c0-0.3-0.1-0.7-0.3-0.9c-0.2-0.3-0.5-0.5-0.8-0.6c-0.3-0.1-0.6-0.2-1-0.1c-0.3,0.1-0.6,0.2-0.9,0.4
		l-0.1,0.1c-0.2,0.2-0.4,0.3-0.6,0.4c-0.2,0.1-0.5,0.2-0.8,0.2c-0.3,0-0.5-0.1-0.8-0.2c-0.2-0.1-0.5-0.2-0.6-0.4
		c-0.2-0.2-0.3-0.4-0.4-0.6c-0.1-0.2-0.2-0.5-0.2-0.8c0-0.3,0.1-0.5,0.2-0.8C4,17.4,4.1,17.1,4.3,17l0.1-0.1
		c0.2-0.2,0.4-0.5,0.4-0.9c0.1-0.3,0-0.7-0.1-1c-0.1-0.3-0.3-0.5-0.6-0.7c-0.3-0.2-0.6-0.3-0.9-0.3H3c-0.5,0-1-0.2-1.4-0.6
		C1.2,13.1,1,12.6,1,12.1c0-0.5,0.2-1,0.6-1.4C2,10.3,2.5,10.1,3,10.1h0.1c0.3,0,0.7-0.1,0.9-0.3C4.3,9.6,4.5,9.3,4.6,9
		c0.1-0.3,0.2-0.6,0.1-1C4.7,7.7,4.5,7.4,4.3,7.2L4.2,7.1C4,6.9,3.9,6.7,3.8,6.5C3.7,6.2,3.6,6,3.6,5.7c0-0.3,0.1-0.5,0.2-0.8
		C3.9,4.7,4,4.5,4.2,4.3C4.4,4.1,4.6,4,4.9,3.9c0.2-0.1,0.5-0.2,0.8-0.2c0.3,0,0.5,0.1,0.8,0.2C6.6,4,6.9,4.1,7,4.3l0.1,0.1
		C7.3,4.6,7.6,4.7,8,4.8c0.3,0.1,0.7,0,1-0.1H9c0.3-0.1,0.5-0.3,0.7-0.6C9.9,3.8,10,3.5,10,3.2V3c0-0.5,0.2-1,0.6-1.4
		C11,1.2,11.5,1,12,1s1,0.2,1.4,0.6C13.8,2,14,2.5,14,3v0.1c0,0.3,0.1,0.6,0.3,0.9c0.2,0.3,0.4,0.5,0.7,0.6c0.3,0.1,0.6,0.2,1,0.1
		c0.3-0.1,0.6-0.2,0.9-0.4l0.1-0.1c0.2-0.2,0.4-0.3,0.6-0.4c0.2-0.1,0.5-0.2,0.8-0.2c0.3,0,0.5,0.1,0.8,0.2c0.2,0.1,0.5,0.2,0.6,0.4
		c0.2,0.2,0.3,0.4,0.4,0.6s0.2,0.5,0.2,0.8c0,0.3-0.1,0.5-0.2,0.8S19.9,6.9,19.7,7l-0.1,0.1c-0.2,0.2-0.4,0.5-0.4,0.9
		c-0.1,0.3,0,0.7,0.1,1V9c0.1,0.3,0.3,0.5,0.6,0.7c0.3,0.2,0.6,0.3,0.9,0.3H21c0.5,0,1,0.2,1.4,0.6C22.8,11,23,11.5,23,12
		s-0.2,1-0.6,1.4C22,13.8,21.5,14,21,14h-0.1c-0.3,0-0.6,0.1-0.9,0.3C19.7,14.5,19.5,14.7,19.4,15z"/>
</g>
</svg>
